<svg width="141" height="30" viewBox="0 0 141 30" fill="none" xmlns="http://www.w3.org/2000/svg">
<g clip-path="url(#clip0_4_85548)">
<path d="M9.70718 12.6689C9.07484 12.9731 9.29095 13.9236 9.99333 13.9236H19.1862C19.8406 13.9236 20.3709 14.4539 20.3709 15.1082V20.4591C20.3709 21.1134 19.8406 21.6437 19.1862 21.6437H9.79722C9.04682 21.6437 8.4385 22.252 8.4385 23.0024V28.8155C8.4385 29.4699 7.90822 30.0001 7.25387 30.0001H1.20064C0.546291 30.0001 0.0160085 29.4719 0.0160085 28.8155V22.8283C0.0160085 22.174 0.546291 21.6437 1.20064 21.6437H5.67303C6.42343 21.6437 7.03175 21.0354 7.03175 20.285V14.9281C7.03175 14.3738 6.58151 13.9236 6.02521 13.9236H1.18463C0.530283 13.9236 0 13.3933 0 12.7389V9.34513C0 8.70879 0.372198 8.12648 0.950507 7.86034L21.4654 0.102199C22.1978 -0.23398 23.0303 0.300304 23.0303 1.10473V6.45759C23.0303 7.16196 22.6221 7.7983 21.9857 8.09446L9.70718 12.6669V12.6689Z" fill="#1C1C1C"/>
<path d="M41.1497 6.11133V8.96085H34.26V12.5828H39.913V15.3002H34.26V21.5716H30.9482V6.11133H41.1517H41.1497Z" fill="#1C1C1C"/>
<path d="M46.0823 7.23614C46.0823 7.73641 45.9143 8.15663 45.5741 8.49481C45.2359 8.83299 44.8077 9.00308 44.2934 9.00308C43.7791 9.00308 43.3469 8.83299 43.0007 8.49481C42.6545 8.15663 42.4824 7.73641 42.4824 7.23614C42.4824 6.73587 42.6545 6.31965 43.0007 5.98748C43.3469 5.6553 43.7771 5.49121 44.2934 5.49121C44.8097 5.49121 45.2359 5.6573 45.5741 5.98748C45.9123 6.31965 46.0823 6.73387 46.0823 7.23614ZM45.8402 10.2177V21.5698H42.7266V10.2177H45.8402Z" fill="#1C1C1C"/>
<path d="M59.0717 15.4088V21.5701H55.9581V15.5849C55.9581 13.6258 55.1916 12.6473 53.6608 12.6473C52.8504 12.6473 52.2261 12.9194 51.7838 13.4637C51.3416 14.008 51.1215 14.7744 51.1215 15.761V21.5701H48.0078V10.218H50.7253L51.0114 11.6308C51.4096 11.1445 51.8879 10.7663 52.4462 10.4942C53.0065 10.222 53.6968 10.0859 54.5233 10.0859C55.848 10.0859 56.9386 10.4982 57.793 11.3226C58.6475 12.147 59.0737 13.5098 59.0737 15.4088H59.0717Z" fill="#1C1C1C"/>
<path d="M72.3939 21.5696H69.6344L69.3683 19.9788C68.4698 21.1134 67.2912 21.6797 65.8344 21.6797C64.8339 21.6797 63.9354 21.4435 63.141 20.9733C62.3465 20.503 61.7242 19.8247 61.274 18.9422C60.8257 18.0597 60.5996 17.0352 60.5996 15.8726C60.5996 14.71 60.8237 13.7074 61.274 12.8249C61.7222 11.9405 62.3485 11.2601 63.151 10.7819C63.9534 10.3036 64.8539 10.0635 65.8564 10.0635C66.6228 10.0635 67.2992 10.2096 67.8875 10.5057C68.4758 10.7999 68.9621 11.2061 69.3443 11.7204L69.6544 10.2196H72.3919V21.5716L72.3939 21.5696ZM69.3243 15.9166C69.3243 14.9301 69.0741 14.1356 68.5739 13.5313C68.0736 12.927 67.4032 12.6248 66.5648 12.6248C65.7263 12.6248 65.052 12.927 64.5437 13.5313C64.0354 14.1356 63.7813 14.9301 63.7813 15.9166C63.7813 16.9031 64.0354 17.6715 64.5437 18.2679C65.052 18.8642 65.7263 19.1623 66.5648 19.1623C67.4032 19.1623 68.0736 18.8642 68.5739 18.2679C69.0741 17.6715 69.3243 16.8871 69.3243 15.9166Z" fill="#1C1C1C"/>
<path d="M85.6313 15.4088V21.5701H82.5176V15.5849C82.5176 13.6258 81.7512 12.6473 80.2204 12.6473C79.41 12.6473 78.7856 12.9194 78.3434 13.4637C77.9012 14.008 77.681 14.7744 77.681 15.761V21.5701H74.5674V10.218H77.2848L77.571 11.6308C77.9692 11.1445 78.4475 10.7663 79.0057 10.4942C79.566 10.222 80.2564 10.0859 81.0829 10.0859C82.4076 10.0859 83.4981 10.4982 84.3526 11.3226C85.2071 12.147 85.6333 13.5098 85.6333 15.4088H85.6313Z" fill="#1C1C1C"/>
<path d="M93.0152 21.7022C91.8366 21.7022 90.8061 21.4621 89.9236 20.9838C89.0411 20.5055 88.3588 19.8252 87.8805 18.9407C87.4022 18.0582 87.1621 17.0417 87.1621 15.8931C87.1621 14.7445 87.4022 13.7099 87.8805 12.8335C88.3588 11.957 89.0431 11.2806 89.9336 10.8024C90.8241 10.3241 91.8586 10.084 93.0372 10.084C94.5541 10.084 95.7907 10.4702 96.7472 11.2426C97.7037 12.015 98.294 13.0876 98.5142 14.4563H95.2905C95.1584 13.896 94.8922 13.4518 94.496 13.1196C94.0978 12.7874 93.6055 12.6233 93.0172 12.6233C92.2068 12.6233 91.5585 12.9255 91.0742 13.5298C90.5879 14.1341 90.3458 14.9206 90.3458 15.8931C90.3458 16.8656 90.5879 17.652 91.0742 18.2563C91.5605 18.8607 92.2088 19.1608 93.0172 19.1608C93.6216 19.1608 94.1258 18.9927 94.53 18.6526C94.9343 18.3144 95.1964 17.8501 95.3145 17.2618H98.5162C98.3101 18.6466 97.7257 19.7311 96.7592 20.5196C95.7947 21.308 94.548 21.7002 93.0152 21.7002V21.7022Z" fill="#1C1C1C"/>
<path d="M103.557 7.23614C103.557 7.73641 103.389 8.15663 103.049 8.49481C102.71 8.83299 102.282 9.00308 101.768 9.00308C101.254 9.00308 100.821 8.83299 100.475 8.49481C100.129 8.15663 99.957 7.73641 99.957 7.23614C99.957 6.73587 100.129 6.31965 100.475 5.98748C100.821 5.6553 101.252 5.49121 101.768 5.49121C102.284 5.49121 102.71 5.6573 103.049 5.98748C103.387 6.31965 103.557 6.73387 103.557 7.23614ZM103.315 10.2177V21.5698H100.201V10.2177H103.315Z" fill="#1C1C1C"/>
<path d="M116.832 21.5696H114.073L113.807 19.9788C112.908 21.1134 111.73 21.6797 110.273 21.6797C109.272 21.6797 108.374 21.4435 107.579 20.9733C106.785 20.503 106.163 19.8247 105.712 18.9422C105.262 18.0597 105.038 17.0352 105.038 15.8726C105.038 14.71 105.262 13.7074 105.712 12.8249C106.161 11.9405 106.787 11.2601 107.589 10.7819C108.392 10.3036 109.292 10.0635 110.295 10.0635C111.061 10.0635 111.738 10.2096 112.326 10.5057C112.914 10.7999 113.401 11.2061 113.783 11.7204L114.093 10.2196H116.83V21.5716L116.832 21.5696ZM113.763 15.9166C113.763 14.9301 113.513 14.1356 113.012 13.5313C112.512 12.927 111.842 12.6248 111.003 12.6248C110.165 12.6248 109.49 12.927 108.982 13.5313C108.474 14.1356 108.22 14.9301 108.22 15.9166C108.22 16.9031 108.474 17.6715 108.982 18.2679C109.49 18.8642 110.165 19.1623 111.003 19.1623C111.842 19.1623 112.512 18.8642 113.012 18.2679C113.513 17.6715 113.763 16.8871 113.763 15.9166Z" fill="#1C1C1C"/>
<path d="M122.119 6.11133V21.5696H119.005V6.11133H122.119Z" fill="#1C1C1C"/>
<path d="M127.4 6.11133V21.5696H124.286V6.11133H127.4Z" fill="#1C1C1C"/>
<path d="M134.535 18.3681L137.231 10.2178H140.564L135.53 23.1807C135.263 23.8731 135.015 24.4133 134.779 24.8036C134.543 25.1938 134.245 25.4879 133.885 25.686C133.525 25.8841 133.056 25.9842 132.482 25.9842H129.456V23.3568H131.179C131.578 23.3568 131.864 23.2907 132.04 23.1587C132.216 23.0266 132.386 22.7685 132.548 22.3863L132.836 21.6359L128.464 10.2178H131.778L134.537 18.3681H134.535Z" fill="#1C1C1C"/>
</g>
<defs>
<clipPath id="clip0_4_85548">
<rect width="140.565" height="30" fill="white"/>
</clipPath>
</defs>
</svg>
